<?xml version="1.0" encoding="UTF-8" standalone="no"?>
<!-- Generator: Adobe Illustrator 19.0.0, SVG Export Plug-In . SVG Version: 6.00 Build 0)  -->

<svg
   xmlns:dc="http://purl.org/dc/elements/1.1/"
   xmlns:cc="http://creativecommons.org/ns#"
   xmlns:rdf="http://www.w3.org/1999/02/22-rdf-syntax-ns#"
   xmlns:svg="http://www.w3.org/2000/svg"
   xmlns="http://www.w3.org/2000/svg"
   xmlns:sodipodi="http://sodipodi.sourceforge.net/DTD/sodipodi-0.dtd"
   xmlns:inkscape="http://www.inkscape.org/namespaces/inkscape"
   version="1.1"
   id="Layer_1"
   x="0px"
   y="0px"
   viewBox="0 0 511.998 511.998"
   style="enable-background:new 0 0 511.998 511.998;"
   xml:space="preserve"
   sodipodi:docname="narwhal.inkscape.svg"
   inkscape:version="0.92.1 r15371"><metadata
     id="metadata4197"><rdf:RDF><cc:Work
         rdf:about=""><dc:format>image/svg+xml</dc:format><dc:type
           rdf:resource="http://purl.org/dc/dcmitype/StillImage" /><dc:title></dc:title></cc:Work></rdf:RDF></metadata><defs
     id="defs4195" /><sodipodi:namedview
     pagecolor="#ffffff"
     bordercolor="#666666"
     borderopacity="1"
     objecttolerance="10"
     gridtolerance="10"
     guidetolerance="10"
     inkscape:pageopacity="0"
     inkscape:pageshadow="2"
     inkscape:window-width="1920"
     inkscape:window-height="1053"
     id="namedview4193"
     showgrid="false"
     inkscape:zoom="4.7398438"
     inkscape:cx="267.46087"
     inkscape:cy="266.41994"
     inkscape:window-x="1366"
     inkscape:window-y="125"
     inkscape:window-maximized="1"
     inkscape:current-layer="Layer_1" /><g
     id="g4136"
     transform="matrix(0.04940254,0,0,0.04766621,242.01016,240.51372)"><g
       id="g4134"><path
         d="m 495.663,335.662 c -6.158,-28.076 -16.521,-52.115 -21.456,-62.645 -0.375,-43.996 -12.864,-86.8 -36.195,-123.921 -4.035,-6.412 -8.611,-12.396 -13.625,-17.858 l 33.202,-120.7 c 1.067,-3.879 -0.791,-7.965 -4.415,-9.712 -3.624,-1.747 -7.978,-0.652 -10.347,2.598 l -69.762,95.761 c -25.54,-7.582 -53.238,-6.248 -78.689,3.926 -4.271,1.708 -6.349,6.554 -4.642,10.824 1.301,3.257 4.43,5.239 7.735,5.239 1.028,0 2.075,-0.192 3.089,-0.597 20.043,-8.014 41.663,-9.667 61.979,-4.944 l -4.282,5.877 c -6.931,9.51 -8.588,21.769 -4.433,32.792 4.126,10.944 13.379,18.997 24.655,21.518 0.335,0.08 0.67,0.157 1.004,0.222 2.253,0.46 4.505,0.682 6.73,0.682 14.61,0 28.017,-9.57 32.737,-23.988 1.74,2.33 3.397,4.741 4.961,7.227 22.017,35.03 33.656,75.521 33.656,117.092 0,9.804 -0.641,19.634 -1.903,29.221 -2.293,17.475 -6.631,34.461 -12.945,50.742 -2.583,-5.303 -6.271,-10.903 -11.534,-16.272 -3.219,-3.284 -8.492,-3.337 -11.777,-0.118 -3.285,3.219 -3.337,8.492 -0.118,11.777 11.092,11.316 12.567,23.695 12.725,27.999 -2.627,4.962 -5.453,9.857 -8.445,14.572 -40.545,64.098 -110.186,102.365 -186.293,102.365 -38.345,0 -70.582,-8.6 -95.817,-25.562 -3.818,-2.566 -8.991,-1.551 -11.558,2.266 -2.566,3.818 -1.551,8.992 2.266,11.557 28.031,18.84 63.395,28.395 105.109,28.395 81.85,0 156.755,-41.165 200.364,-110.109 0.535,-0.843 1.056,-1.701 1.581,-2.555 16.641,22.693 37.744,34.009 38.775,34.552 1.208,0.636 2.542,0.961 3.882,0.961 0.847,0 1.696,-0.129 2.518,-0.39 2.124,-0.674 3.889,-2.17 4.901,-4.154 12.59,-24.674 14.73,-56.517 6.367,-94.64 z M 382.789,157.719 c -0.03,-0.007 -0.082,-0.017 -0.113,-0.022 -0.115,-0.022 -0.231,-0.052 -0.348,-0.08 -0.036,-0.009 -0.079,-0.019 -0.115,-0.027 -5.965,-1.334 -10.631,-5.401 -12.802,-11.161 -2.201,-5.839 -1.36,-12.074 2.31,-17.107 l 1.064,-1.46 c 3.542,7.905 9.668,17.794 20.193,28.813 -3.141,1.331 -6.662,1.769 -10.189,1.044 z m 24.238,-26.183 c 0,0.002 -10e-4,0.004 -10e-4,0.007 l -3.349,12.187 C 389.32,128.164 385.748,116.079 384.87,111.271 l 15.31,-21.016 c 2.066,8.105 5.562,17.13 11.467,24.486 z m 10.937,-39.754 c -2.825,-8.107 -3.721,-16.37 -3.999,-20.45 L 429.43,50.103 Z m 60.184,322.498 c -7.938,-5.619 -20.477,-16.069 -29.79,-31.187 11.555,-22.603 19.336,-46.76 23.148,-71.894 9.704,28.877 18.728,70.174 6.642,103.081 z"
         id="path4132"
         inkscape:connector-curvature="0" /></g></g><g
     id="g4142"
     transform="matrix(0.04940254,0,0,0.04766621,242.01016,240.51372)"><g
       id="g4140"><path
         d="m 405.416,321.739 c -15.959,-6.706 -36.043,-10.106 -59.695,-10.106 -12.164,0 -23.733,1.96 -35.049,5.938 0,-0.043 0.002,-0.085 0.002,-0.129 0,-4.599 -3.729,-8.328 -8.328,-8.328 -4.599,0 -8.328,3.729 -8.328,8.328 0,3.801 -0.265,7.664 -0.791,11.488 -0.026,0.133 -0.048,0.266 -0.068,0.402 -5.378,37.569 -35.318,65.334 -50.486,77.207 -1.86,-6.801 -3.232,-14.031 -4.099,-21.605 -5.066,-44.328 8.781,-86.948 9.01,-87.641 1.455,-4.364 -0.904,-9.08 -5.268,-10.533 -4.365,-1.455 -9.08,0.904 -10.533,5.268 -0.606,1.818 -14.341,43.736 -10.225,90.164 C 186.892,409.265 150.361,422.79 89.414,403.495 76.549,372.462 70.01,333.75 70.01,288.307 c 0,-3.317 -1.968,-6.317 -5.011,-7.639 -16.524,-7.176 -27.643,-17.874 -33.047,-31.8 -7.147,-18.415 -3.025,-38.71 0.316,-49.747 37.595,21.458 49.873,62.458 49.997,62.883 1.14,3.993 5.047,6.535 9.162,5.96 4.113,-0.576 7.173,-4.094 7.173,-8.247 0,-31.807 29.288,-58.708 44.698,-70.658 5.203,23.213 1.908,45.059 -9.844,65.073 -10.358,17.639 -23.755,27.28 -23.872,27.363 -3.268,2.296 -4.446,6.591 -2.805,10.234 0.222,0.493 5.538,12.203 14.509,23.913 3.241,4.231 6.535,7.926 9.876,11.083 -8.36,-1.442 -17.653,-4.635 -27.342,-10.72 -3.894,-2.447 -9.035,-1.271 -11.482,2.623 -2.446,3.895 -1.273,9.035 2.623,11.482 17.545,11.02 34.118,14.299 47.634,14.299 16.479,0 28.403,-4.874 32.008,-6.545 18.098,-7.364 34.149,-30.176 48.78,-69.196 6.284,-16.74 11.342,-40.063 15.034,-69.32 3.549,-28.057 17.687,-52.371 39.81,-68.462 3.72,-2.706 4.542,-7.914 1.837,-11.634 -2.706,-3.72 -7.915,-4.543 -11.634,-1.837 -25.878,18.823 -42.405,47.178 -46.538,79.844 -3.529,27.974 -8.274,50.029 -14.103,65.558 -14.571,38.859 -30.88,60.534 -45.925,61.034 -15.38,0.519 -30.05,-20.372 -37.06,-33.299 5.73,-5.06 14.829,-14.257 22.628,-27.336 11.336,-19.01 22.027,-50.14 8.582,-90.477 -0.807,-2.422 -2.681,-4.339 -5.082,-5.203 -2.402,-0.865 -5.067,-0.578 -7.232,0.774 -2.058,1.286 -41.862,26.559 -56.453,64.178 C 77.356,215.101 59.863,192.8 31.04,179.827 c -4.189,-1.887 -9.114,-0.023 -11.006,4.163 -0.682,1.509 -16.561,37.338 -3.658,70.779 6.478,16.79 18.915,29.841 37.007,38.858 0.52,47.141 7.983,87.482 22.203,119.972 8.49,19.409 19.513,36.232 32.764,50.002 1.636,1.699 3.816,2.554 6.002,2.554 2.078,0 4.159,-0.773 5.774,-2.327 3.314,-3.189 3.416,-8.461 0.227,-11.775 -7.947,-8.26 -15.017,-17.799 -21.136,-28.476 15.712,3.898 29.905,5.629 42.836,5.629 34.63,0 60.27,-12.338 82.208,-28.194 1.557,7.7 3.634,15.024 6.213,21.89 0.877,2.336 2.755,4.155 5.117,4.958 0.873,0.297 1.778,0.443 2.678,0.443 1.538,0 3.065,-0.426 4.399,-1.257 2.329,-1.448 55.737,-35.266 66.227,-90.843 11.889,-5.313 23.978,-7.913 36.829,-7.913 21.424,0 39.338,2.963 53.242,8.806 4.238,1.781 9.121,-0.211 10.904,-4.452 1.779,-4.242 -0.213,-9.123 -4.454,-10.905 z"
         id="path4138"
         inkscape:connector-curvature="0" /></g></g><g
     id="g4148"
     transform="matrix(0.04940254,0,0,0.04766621,242.01016,240.51372)"><g
       id="g4146"><path
         d="m 425.627,189.759 c -2.949,-1.591 -6.673,-1.275 -9.271,0.865 -5.904,4.859 -2.38,14.763 5.28,14.763 3.846,0 7.283,-2.745 8.127,-6.499 0.804,-3.578 -0.906,-7.386 -4.136,-9.129 z"
         id="path4144"
         inkscape:connector-curvature="0" /></g></g><g
     id="g4154"
     transform="matrix(0.04940254,0,0,0.04766621,242.01016,240.51372)"><g
       id="g4152"><path
         d="m 319.35,190.384 c -2.96,2.199 -4.123,6.234 -2.789,9.671 1.23,3.169 4.353,5.331 7.758,5.331 3.911,0 7.41,-2.849 8.173,-6.696 1.459,-7.357 -7.168,-12.743 -13.142,-8.306 z"
         id="path4150"
         inkscape:connector-curvature="0" /></g></g><g
     id="g4160"
     transform="matrix(0.04940254,0,0,0.04766621,242.01016,240.51372)"><g
       id="g4158"><path
         d="m 427.81,217.963 c -4.599,0 -8.328,3.729 -8.328,8.328 0,9.131 -7.429,16.561 -16.561,16.561 -9.132,0 -16.561,-7.43 -16.561,-16.561 0,-4.599 -3.729,-8.328 -8.328,-8.328 -4.599,0 -8.328,3.729 -8.328,8.328 0,9.131 -7.429,16.561 -16.561,16.561 -9.132,0 -16.56,-7.429 -16.56,-16.561 0,-4.599 -3.729,-8.328 -8.328,-8.328 -4.599,0 -8.328,3.729 -8.328,8.328 0,18.315 14.901,33.217 33.216,33.217 9.898,0 18.798,-4.351 24.889,-11.242 6.091,6.89 14.991,11.242 24.889,11.242 18.316,0 33.217,-14.901 33.217,-33.217 0,-4.599 -3.729,-8.328 -8.328,-8.328 z"
         id="path4156"
         inkscape:connector-curvature="0" /></g></g><g
     id="g4162"
     transform="matrix(0.04940254,0,0,0.04766621,242.01016,240.51372)" /><g
     id="g4164"
     transform="matrix(0.04940254,0,0,0.04766621,242.01016,240.51372)" /><g
     id="g4166"
     transform="matrix(0.04940254,0,0,0.04766621,242.01016,240.51372)" /><g
     id="g4168"
     transform="matrix(0.04940254,0,0,0.04766621,242.01016,240.51372)" /><g
     id="g4170"
     transform="matrix(0.04940254,0,0,0.04766621,242.01016,240.51372)" /><g
     id="g4172"
     transform="matrix(0.04940254,0,0,0.04766621,242.01016,240.51372)" /><g
     id="g4174"
     transform="matrix(0.04940254,0,0,0.04766621,242.01016,240.51372)" /><g
     id="g4176"
     transform="matrix(0.04940254,0,0,0.04766621,242.01016,240.51372)" /><g
     id="g4178"
     transform="matrix(0.04940254,0,0,0.04766621,242.01016,240.51372)" /><g
     id="g4180"
     transform="matrix(0.04940254,0,0,0.04766621,242.01016,240.51372)" /><g
     id="g4182"
     transform="matrix(0.04940254,0,0,0.04766621,242.01016,240.51372)" /><g
     id="g4184"
     transform="matrix(0.04940254,0,0,0.04766621,242.01016,240.51372)" /><g
     id="g4186"
     transform="matrix(0.04940254,0,0,0.04766621,242.01016,240.51372)" /><g
     id="g4188"
     transform="matrix(0.04940254,0,0,0.04766621,242.01016,240.51372)" /><g
     id="g4190"
     transform="matrix(0.04940254,0,0,0.04766621,242.01016,240.51372)" /></svg>