<?xml version="1.0" encoding="UTF-8" standalone="no"?>
<!DOCTYPE svg PUBLIC "-//W3C//DTD SVG 20010904//EN"
              "http://www.w3.org/TR/2001/REC-SVG-20010904/DTD/svg10.dtd">

<svg xmlns="http://www.w3.org/2000/svg"
     width="0.277778in" height="0.277778in"
     viewBox="0 0 25 25">
  <path id="Imported Path"
        fill="none" stroke="black" stroke-width="1"
        d="M 21.15,10.90
           C 21.37,10.90 21.56,11.08 21.56,11.30
             21.56,12.17 20.82,12.88 19.92,12.88
             19.43,12.88 18.99,12.68 18.69,12.35
             18.39,12.68 17.95,12.88 17.46,12.88
             16.55,12.88 15.82,12.17 15.82,11.30
             15.82,11.08 16.00,10.90 16.23,10.90
             16.46,10.90 16.64,11.08 16.64,11.30
             16.64,11.74 17.01,12.09 17.46,12.09
             17.91,12.09 18.28,11.74 18.28,11.30
             18.28,11.08 18.46,10.90 18.69,10.90
             18.91,10.90 19.10,11.08 19.10,11.30
             19.10,11.74 19.47,12.09 19.92,12.09
             20.37,12.09 20.73,11.74 20.73,11.30
             20.73,11.08 20.92,10.90 21.15,10.90
             21.15,10.90 21.15,10.90 21.15,10.90 Z
           M 15.79,9.59
           C 16.08,9.38 16.51,9.63 16.44,9.99
             16.40,10.17 16.23,10.30 16.03,10.30
             15.87,10.30 15.71,10.20 15.65,10.05
             15.58,9.89 15.64,9.69 15.79,9.59
             15.79,9.59 15.79,9.59 15.79,9.59 Z
           M 21.04,9.56
           C 21.20,9.64 21.28,9.82 21.24,9.99
             21.20,10.17 21.03,10.30 20.84,10.30
             20.46,10.30 20.29,9.83 20.58,9.60
             20.71,9.50 20.89,9.48 21.04,9.56
             21.04,9.56 21.04,9.56 21.04,9.56 Z
           M 20.04,15.85
           C 20.25,15.94 20.35,16.17 20.26,16.37
             20.17,16.57 19.93,16.67 19.72,16.58
             19.03,16.30 18.15,16.16 17.09,16.16
             16.46,16.16 15.86,16.29 15.27,16.54
             14.75,19.19 12.11,20.80 12.00,20.87
             11.93,20.91 11.86,20.93 11.78,20.93
             11.74,20.93 11.69,20.92 11.65,20.91
             11.53,20.87 11.44,20.78 11.40,20.67
             11.27,20.35 11.17,20.00 11.09,19.63
             10.01,20.39 8.74,20.97 7.03,20.97
             6.39,20.97 5.69,20.89 4.91,20.71
             5.21,21.21 5.56,21.67 5.96,22.06
             6.11,22.22 6.11,22.47 5.95,22.62
             5.87,22.70 5.76,22.73 5.66,22.73
             5.55,22.73 5.44,22.69 5.36,22.61
             4.71,21.96 4.16,21.15 3.75,20.23
             3.04,18.68 2.67,16.76 2.65,14.51
             1.75,14.08 1.14,13.46 0.82,12.66
             0.18,11.06 0.97,9.36 1.00,9.28
             1.09,9.09 1.34,9.00 1.54,9.09
             2.97,9.70 3.83,10.77 4.32,11.60
             5.04,9.80 7.01,8.60 7.11,8.54
             7.22,8.47 7.35,8.46 7.47,8.50
             7.59,8.54 7.68,8.63 7.72,8.75
             8.38,10.67 7.85,12.16 7.29,13.06
             6.91,13.68 6.46,14.12 6.18,14.36
             6.52,14.98 7.25,15.98 8.01,15.95
             8.75,15.93 9.56,14.89 10.28,13.04
             10.56,12.30 10.80,11.25 10.97,9.92
             11.18,8.36 11.99,7.01 13.27,6.11
             13.46,5.98 13.71,6.02 13.85,6.20
             13.98,6.38 13.94,6.62 13.76,6.75
             12.66,7.52 11.96,8.68 11.79,10.02
             11.61,11.41 11.36,12.52 11.05,13.32
             10.32,15.18 9.53,16.27 8.64,16.62
             8.46,16.70 7.87,16.93 7.06,16.93
             6.39,16.93 5.57,16.78 4.70,16.25
             4.51,16.13 4.45,15.89 4.57,15.70
             4.69,15.52 4.95,15.46 5.14,15.58
             5.62,15.87 6.08,16.02 6.49,16.09
             6.33,15.94 6.16,15.76 6.00,15.56
             5.56,15.00 5.30,14.44 5.29,14.42
             5.21,14.25 5.26,14.04 5.42,13.93
             5.43,13.93 6.09,13.47 6.60,12.63
             7.18,11.67 7.35,10.63 7.09,9.53
             6.33,10.10 4.88,11.38 4.88,12.89
             4.88,13.09 4.73,13.26 4.53,13.29
             4.32,13.31 4.13,13.19 4.08,13.00
             4.07,12.98 3.46,11.03 1.61,10.01
             1.44,10.53 1.24,11.50 1.59,12.38
             1.86,13.04 2.41,13.55 3.22,13.89
             3.37,13.96 3.47,14.10 3.47,14.26
             3.47,16.42 3.79,18.27 4.43,19.75
             7.44,20.67 9.24,20.02 10.96,18.73
             10.75,16.52 11.43,14.52 11.46,14.43
             11.53,14.23 11.77,14.11 11.98,14.18
             12.20,14.25 12.31,14.48 12.24,14.69
             12.23,14.72 11.55,16.75 11.80,18.86
             11.84,19.22 11.91,19.57 12.00,19.89
             12.75,19.33 14.23,18.00 14.49,16.21
             14.49,16.21 14.50,16.20 14.50,16.19
             14.52,16.01 14.54,15.83 14.54,15.65
             14.54,15.43 14.72,15.25 14.95,15.25
             15.18,15.25 15.36,15.43 15.36,15.65
             15.36,15.65 15.36,15.65 15.36,15.65
             15.92,15.46 16.49,15.37 17.09,15.37
             18.26,15.37 19.25,15.53 20.04,15.85
             20.04,15.85 20.04,15.85 20.04,15.85 Z
           M 24.50,16.51
           C 24.91,18.33 24.81,19.85 24.18,21.03
             24.13,21.12 24.05,21.19 23.94,21.22
             23.90,21.24 23.86,21.24 23.82,21.24
             23.75,21.24 23.69,21.23 23.63,21.20
             23.57,21.17 22.53,20.63 21.71,19.55
             21.68,19.59 21.66,19.63 21.63,19.67
             19.48,22.96 15.78,24.92 11.73,24.92
             9.67,24.92 7.93,24.46 6.54,23.57
             6.35,23.44 6.30,23.20 6.43,23.02
             6.56,22.83 6.81,22.79 7.00,22.91
             8.25,23.72 9.84,24.13 11.73,24.13
             15.49,24.13 18.93,22.30 20.94,19.25
             21.08,19.02 21.22,18.79 21.35,18.55
             21.35,18.35 21.27,17.76 20.73,17.22
             20.57,17.06 20.57,16.81 20.73,16.66
             20.89,16.50 21.15,16.50 21.31,16.66
             21.57,16.92 21.75,17.18 21.88,17.44
             22.19,16.66 22.41,15.85 22.52,15.02
             22.58,14.56 22.62,14.09 22.62,13.63
             22.62,11.64 22.04,9.71 20.95,8.04
             20.88,7.93 20.79,7.81 20.71,7.70
             20.48,8.39 19.81,8.84 19.09,8.84
             18.98,8.84 18.87,8.83 18.76,8.81
             18.74,8.81 18.73,8.80 18.71,8.80
             18.15,8.68 17.69,8.30 17.49,7.77
             17.29,7.25 17.37,6.66 17.71,6.21
             17.71,6.21 17.92,5.93 17.92,5.93
             16.92,5.71 15.85,5.78 14.86,6.17
             14.81,6.19 14.76,6.20 14.71,6.20
             14.54,6.20 14.39,6.10 14.32,5.95
             14.24,5.74 14.34,5.51 14.55,5.43
             15.81,4.94 17.18,4.88 18.44,5.24
             18.44,5.24 21.89,0.68 21.89,0.68
             22.01,0.52 22.22,0.47 22.40,0.55
             22.58,0.64 22.67,0.83 22.62,1.02
             22.62,1.02 20.98,6.77 20.98,6.77
             21.22,7.03 21.45,7.32 21.65,7.62
             22.80,9.39 23.42,11.43 23.44,13.53
             23.68,14.03 24.19,15.18 24.50,16.51
             24.50,16.51 24.50,16.51 24.50,16.51 Z
           M 18.92,8.03
           C 19.10,8.07 19.27,8.05 19.43,7.98
             18.91,7.46 18.60,6.99 18.43,6.61
             18.43,6.61 18.38,6.68 18.38,6.68
             18.19,6.92 18.15,7.22 18.26,7.49
             18.37,7.77 18.60,7.96 18.89,8.03
             18.90,8.03 18.90,8.03 18.90,8.03
             18.90,8.03 18.91,8.03 18.92,8.03
             18.92,8.03 18.92,8.03 18.92,8.03
             18.92,8.03 18.92,8.03 18.92,8.03 Z
           M 20.35,5.98
           C 20.06,5.63 19.88,5.20 19.78,4.82
             19.78,4.82 19.02,5.82 19.02,5.82
             19.07,6.05 19.24,6.62 19.95,7.37
             19.95,7.37 20.12,6.78 20.12,6.78
             20.12,6.78 20.12,6.78 20.12,6.78
             20.12,6.78 20.35,5.98 20.35,5.98 Z
           M 21.23,2.90
           C 21.23,2.90 20.69,3.11 20.69,3.11
             20.70,3.31 20.75,3.70 20.89,4.09
             20.89,4.09 21.23,2.90 21.23,2.90 Z
           M 23.87,13.36
           C 23.68,14.56 23.30,15.71 22.73,16.79
             23.19,17.51 23.81,18.01 24.20,18.28
             24.80,16.71 24.35,14.74 23.87,13.36 Z" />
</svg>
